<?xml version="1.0" encoding="utf-8"?>
<!-- Generator: Adobe Illustrator 21.0.2, SVG Export Plug-In . SVG Version: 6.00 Build 0)  -->
<svg version="1.1" id="Layer_1" xmlns="http://www.w3.org/2000/svg" xmlns:xlink="http://www.w3.org/1999/xlink" x="0px" y="0px"
	 viewBox="0 0 454.1 127.9" style="enable-background:new 0 0 454.1 127.9;" xml:space="preserve">
<style type="text/css">
	.st0{clip-path:url(#SVGID_2_);fill:#00509E;}
	.st1{clip-path:url(#SVGID_2_);}
</style>
<g>
	<defs>
		<rect id="SVGID_1_" y="0" width="454.1" height="127.9"/>
	</defs>
	<clipPath id="SVGID_2_">
		<use xlink:href="#SVGID_1_"  style="overflow:visible;"/>
	</clipPath>
	<path class="st0" d="M56.8,1.4H21.7C12,1.4,4.1,9.2,4.1,18.9v35.1c0,9.7,7.9,17.6,17.6,17.6h35.1c9.7,0,17.6-7.9,17.6-17.6V18.9
		C74.3,9.2,66.5,1.4,56.8,1.4 M21.7,18.9h35.1v35.1H21.7V18.9z"/>
	<path class="st0" d="M39.1,22c-8,0-14.4,6.5-14.4,14.4c0,8,6.4,14.4,14.4,14.4c8,0,14.4-6.4,14.4-14.4C53.5,28.4,47.1,22,39.1,22"
		/>
	<polygon class="st1" points="112.5,1.5 146.7,51.2 146.7,12.9 146.6,3.8 136.3,3.8 136.3,1.5 158.4,1.5 158.4,3.8 149.9,3.8 
		149.8,12.9 149.8,72.1 148.2,72.6 102.3,5.9 102.3,59.5 102.4,68.9 113,68.9 113,71.2 90.2,71.2 90.2,68.9 99.3,68.9 99.4,59.5 
		99.4,12.9 99.3,3.8 90.2,3.8 90.2,1.5 	"/>
	<path class="st1" d="M226.6,1.5v22.3h-3c-0.3-3.5-0.7-7.8-3.8-12.9c-3.6-6-8.4-6.3-13.1-6.5h-5.5l-0.1,8.9v45.6l0.1,10.1h10.7v2.4
		h-32.4v-2.4h10.7l0.1-10.1V13.2l-0.1-8.9h-4.5c-5.7,0.1-10.1,0.1-14.2,6.7c-3.3,5.2-3.6,9.4-3.8,12.7h-2.9V1.5H226.6"/>
	<polygon class="st1" points="254.7,1.5 288.9,51.2 288.9,12.9 288.8,3.8 278.5,3.8 278.5,1.5 300.5,1.5 300.5,3.8 292,3.8 
		291.9,12.9 291.9,72.1 290.4,72.6 244.5,5.9 244.5,59.5 244.6,68.9 255.2,68.9 255.2,71.2 232.3,71.2 232.3,68.9 241.4,68.9 
		241.5,59.5 241.5,12.9 241.4,3.8 232.3,3.8 232.3,1.5 	"/>
	<path class="st1" d="M338.9,1.5v2.4h-9.8l-0.1,8.4V50c0.1,9.8,0.3,19.1,18.7,19.1c18.6,0,19.8-8.1,20.1-16.9V12.2l-0.1-8.4h-10V1.5
		h21.8v2.4h-8.6l-0.1,8.4v36c-0.1,13-0.2,24-25.8,24c-3.7,0-12.4-0.4-17.9-2.7c-8.8-3.8-9-11.5-9.1-21V12.2L318,3.8h-8.5V1.5H338.9"
		/>
	<polygon class="st1" points="101.3,119.6 96.4,106.9 93.9,111.8 93.9,119.6 91.8,119.6 91.8,93.9 93.9,93.9 93.9,107.9 100.7,93.9 
		103,93.9 97.7,104.5 103.6,119.6 	"/>
	<path class="st1" d="M115.1,119.6v-13.8c0-2-1.1-3-2.5-3c-1.4,0-2.6,1-2.6,3v13.8h-2v-18.3h2v1.5c0.2-0.4,0.7-0.9,1-1.1
		c0.6-0.4,1.3-0.6,2.1-0.6c1.2,0,2.1,0.5,2.9,1.3c0.7,0.8,1.1,1.8,1.1,3.6v13.8H115.1z"/>
	<path class="st1" d="M130.8,118.4c-0.8,1-1.9,1.4-3.4,1.4c-1.5,0-2.6-0.5-3.4-1.4c-1.1-1.3-1.4-3.7-1.4-8c0-4.3,0.3-6.7,1.4-8
		c0.8-1,1.9-1.5,3.4-1.5c1.5,0,2.6,0.5,3.4,1.5c1.1,1.3,1.4,3.7,1.4,8C132.2,114.7,131.9,117.1,130.8,118.4 M129.2,103.6
		c-0.4-0.5-1-0.8-1.8-0.8c-0.8,0-1.4,0.4-1.8,0.8c-0.8,1-0.9,2.9-0.9,6.8c0,3.9,0.1,5.8,0.9,6.8c0.4,0.5,1,0.8,1.8,0.8
		c0.8,0,1.4-0.4,1.8-0.8c0.8-1,0.9-2.9,0.9-6.8C130.1,106.5,130,104.6,129.2,103.6"/>
	<polygon class="st1" points="148.9,119.6 146.8,119.6 144,104.6 141.4,119.6 139.2,119.6 135.7,101.2 138.1,101.2 140.3,116.4 
		143,101.2 145,101.2 147.8,116.4 150.2,101.2 152.5,101.2 	"/>
	<path class="st1" d="M157.9,118.4c-0.9-0.8-1.4-1.9-1.4-3.7V93.9h2v20.7c0,2,1,3.1,3,3.1v1.8C160.1,119.6,158.9,119.3,157.9,118.4"
		/>
	<path class="st1" d="M167.5,110.7c0,3.7,0.1,5.6,0.9,6.5c0.4,0.5,1,0.8,1.8,0.8c0.7,0,1.4-0.2,1.8-0.7c0.5-0.6,0.8-1.5,0.8-2.6h2
		c0,1.8-0.4,2.9-1.3,3.9c-0.8,0.8-2.1,1.3-3.3,1.3c-1.4,0-2.5-0.5-3.3-1.3c-1.2-1.3-1.5-3.7-1.5-8.1s0.3-6.8,1.5-8.1
		c0.8-0.9,1.9-1.3,3.3-1.3c1.4,0,2.5,0.5,3.3,1.3c1.3,1.4,1.4,4,1.4,8.4H167.5z M172,103.6c-0.4-0.5-1-0.8-1.8-0.8
		c-0.8,0-1.4,0.4-1.8,0.8c-0.7,0.8-0.9,2.4-0.9,5.5h5.4C172.9,106,172.8,104.4,172,103.6"/>
	<path class="st1" d="M187.2,119.6v-1.5c-0.2,0.4-0.7,0.9-1,1.1c-0.6,0.4-1.3,0.6-2.1,0.6c-1.1,0-2.1-0.4-2.8-1.3
		c-1.1-1.3-1.4-3.6-1.4-8.1c0-4.6,0.3-6.9,1.4-8.2c0.7-0.8,1.6-1.3,2.8-1.3c0.8,0,1.5,0.2,2.1,0.6c0.4,0.2,0.8,0.7,1,1.1v-8.7h2
		v25.6H187.2z M187.1,106c0-1.2-0.3-2-0.8-2.5c-0.5-0.4-1.1-0.7-1.8-0.7c-0.7,0-1.4,0.4-1.8,0.8c-0.8,1-0.9,2.9-0.9,6.8
		c0,3.9,0.1,5.8,0.9,6.8c0.4,0.5,1,0.8,1.8,0.8c0.7,0,1.3-0.2,1.8-0.6c0.5-0.5,0.8-1.4,0.8-2.6V106z"/>
	<path class="st1" d="M202.7,125.6c-0.8,0.8-2,1.3-3.3,1.3c-1.3,0-2.5-0.4-3.3-1.2c-0.9-0.9-1.3-2.2-1.3-3.9h2c0,1.1,0.1,2,0.8,2.6
		c0.5,0.5,1.1,0.7,1.8,0.7c0.8,0,1.4-0.4,1.8-0.8c0.6-0.7,0.9-1.9,0.9-4.2v-2.3c-0.2,0.4-0.6,0.9-1,1.1c-0.6,0.4-1.2,0.5-2.1,0.5
		c-1.2,0-2.1-0.4-2.8-1.3c-1.1-1.3-1.4-3.4-1.4-8c0-4.6,0.3-6.7,1.4-8c0.7-0.8,1.5-1.3,2.8-1.3c0.8,0,1.5,0.2,2.1,0.6
		c0.3,0.2,0.8,0.7,1,1.1v-1.4h2v18.9C204.1,123.2,203.8,124.5,202.7,125.6 M202.1,106c0-1.2-0.3-2-0.8-2.5c-0.5-0.4-1.1-0.7-1.8-0.7
		c-0.8,0-1.4,0.4-1.8,0.8c-0.8,1-0.9,2.9-0.9,6.7c0,3.8,0.1,5.7,0.9,6.6c0.4,0.5,1,0.8,1.8,0.8c0.7,0,1.3-0.2,1.8-0.7
		c0.5-0.5,0.8-1.3,0.8-2.5V106z"/>
	<path class="st1" d="M211.6,110.7c0,3.7,0.1,5.6,0.9,6.5c0.4,0.5,1,0.8,1.8,0.8c0.7,0,1.4-0.2,1.8-0.7c0.5-0.6,0.8-1.5,0.8-2.6h2
		c0,1.8-0.4,2.9-1.3,3.9c-0.8,0.8-2.1,1.3-3.3,1.3c-1.4,0-2.5-0.5-3.3-1.3c-1.2-1.3-1.5-3.7-1.5-8.1s0.3-6.8,1.5-8.1
		c0.8-0.9,1.9-1.3,3.3-1.3c1.4,0,2.5,0.5,3.3,1.3c1.3,1.4,1.4,4,1.4,8.4H211.6z M216.1,103.6c-0.4-0.5-1-0.8-1.8-0.8
		c-0.8,0-1.4,0.4-1.8,0.8c-0.7,0.8-0.9,2.4-0.9,5.5h5.4C217,106,216.8,104.4,216.1,103.6"/>
	<path class="st1" d="M235.9,103v16.6h-2V103h-2.2v-1.6h2.2v-2.6c0-1.7,0.5-2.9,1.4-3.7c1-0.9,2.4-1.2,3.8-1.2v1.8
		c-2.1,0-3.1,1-3.1,3.1v2.6h3.1v1.6H235.9z"/>
	<path class="st1" d="M250.9,118.4c-0.8,1-1.9,1.4-3.4,1.4c-1.5,0-2.6-0.5-3.4-1.4c-1.1-1.3-1.4-3.7-1.4-8c0-4.3,0.3-6.7,1.4-8
		c0.8-1,1.9-1.5,3.4-1.5c1.5,0,2.6,0.5,3.4,1.5c1.1,1.3,1.4,3.7,1.4,8C252.2,114.7,252,117.1,250.9,118.4 M249.3,103.6
		c-0.4-0.5-1-0.8-1.8-0.8c-0.8,0-1.4,0.4-1.8,0.8c-0.8,1-0.9,2.9-0.9,6.8c0,3.9,0.1,5.8,0.9,6.8c0.4,0.5,1,0.8,1.8,0.8
		c0.8,0,1.4-0.4,1.8-0.8c0.8-1,0.9-2.9,0.9-6.8C250.2,106.5,250.1,104.6,249.3,103.6"/>
	<path class="st1" d="M263.4,102.9c-2.2,0-3.6,1.4-3.6,3.6v13.1h-2v-18.3h2v1.9c0.2-0.4,0.6-0.9,0.9-1.2c0.8-0.8,1.9-1.1,3.1-1.1
		v1.9H263.4z"/>
	<path class="st1" d="M283.7,119.6v-1.7c-0.3,0.5-0.7,1-1,1.2c-0.6,0.4-1.2,0.7-2.2,0.7c-1.2,0-2.1-0.4-2.9-1.2
		c-0.7-0.7-1.2-2.2-1.2-4.1c0-1.7,0.5-3.2,1.5-4.1c0.9-0.8,1.9-1.2,3.6-1.2h2.1v-3.3c0-2-0.8-3.1-2.5-3.1c-0.7,0-1.3,0.3-1.7,0.7
		c-0.6,0.6-0.8,1.3-0.8,2.6h-2c0-1.4,0.3-2.7,1.3-3.8c0.8-0.8,1.8-1.2,3.2-1.2c1.4,0,2.6,0.4,3.3,1.2c0.8,0.9,1.3,2,1.3,3.8v13.6
		H283.7z M283.6,110.7h-2c-0.9,0-1.6,0.2-2.2,0.8c-0.6,0.6-1,1.7-1,3c0,2.2,0.8,3.6,2.6,3.6c1.6,0,2.7-1.4,2.7-3.3V110.7z"/>
	<path class="st1" d="M308.5,118.6c-0.8,0.9-1.7,1.3-2.8,1.3c-0.8,0-1.5-0.2-2.1-0.6c-0.3-0.2-0.9-0.7-1-1.1v1.5h-2V93.9h2v8.7
		c0.2-0.4,0.6-0.9,1-1.1c0.6-0.4,1.3-0.6,2.1-0.6c1.3,0,2.2,0.5,2.8,1.3c1.1,1.3,1.4,3.6,1.4,8.2C309.8,115,309.6,117.3,308.5,118.6
		 M306.9,103.6c-0.4-0.5-1-0.8-1.8-0.8c-0.7,0-1.3,0.3-1.7,0.7c-0.5,0.5-0.9,1.3-0.9,2.5v8.9c0,1.2,0.3,2,0.9,2.6
		c0.5,0.4,1,0.6,1.7,0.6c0.7,0,1.4-0.4,1.8-0.8c0.8-1,0.9-2.9,0.9-6.8C307.8,106.5,307.7,104.6,306.9,103.6"/>
	<path class="st1" d="M316.9,110.7c0,3.7,0.1,5.6,0.9,6.5c0.4,0.5,1,0.8,1.8,0.8c0.7,0,1.4-0.2,1.8-0.7c0.5-0.6,0.8-1.5,0.8-2.6h2
		c0,1.8-0.4,2.9-1.3,3.9c-0.8,0.8-2.1,1.3-3.3,1.3c-1.4,0-2.5-0.5-3.3-1.3c-1.2-1.3-1.5-3.7-1.5-8.1s0.3-6.8,1.5-8.1
		c0.8-0.9,1.9-1.3,3.3-1.3s2.5,0.5,3.3,1.3c1.3,1.4,1.4,4,1.4,8.4H316.9z M321.4,103.6c-0.4-0.5-1-0.8-1.8-0.8
		c-0.8,0-1.4,0.4-1.8,0.8c-0.7,0.8-0.9,2.4-0.9,5.5h5.4C322.3,106,322.1,104.4,321.4,103.6"/>
	<path class="st1" d="M331.8,118.4c-0.9-0.8-1.4-2.1-1.4-3.7V103h-2.2v-1.6h2.2v-5.5h2v5.5h3.1v1.6h-3.1v11.7c0,2.2,1.2,3.1,3.3,3.1
		v1.8C334.2,119.6,332.8,119.4,331.8,118.4"/>
	<path class="st1" d="M342.4,118.4c-0.9-0.8-1.4-2.1-1.4-3.7V103h-2.2v-1.6h2.2v-5.5h2v5.5h3.1v1.6H343v11.7c0,2.2,1.2,3.1,3.3,3.1
		v1.8C344.8,119.6,343.5,119.4,342.4,118.4"/>
	<path class="st1" d="M352.5,110.7c0,3.7,0.1,5.6,0.9,6.5c0.4,0.5,1,0.8,1.8,0.8c0.7,0,1.4-0.2,1.8-0.7c0.5-0.6,0.8-1.5,0.8-2.6h2
		c0,1.8-0.4,2.9-1.3,3.9c-0.8,0.8-2.1,1.3-3.3,1.3c-1.4,0-2.5-0.5-3.3-1.3c-1.2-1.3-1.5-3.7-1.5-8.1s0.3-6.8,1.5-8.1
		c0.8-0.9,1.9-1.3,3.3-1.3s2.5,0.5,3.3,1.3c1.3,1.4,1.4,4,1.4,8.4H352.5z M357,103.6c-0.4-0.5-1-0.8-1.8-0.8c-0.8,0-1.4,0.4-1.8,0.8
		c-0.7,0.8-0.9,2.4-0.9,5.5h5.4C357.9,106,357.7,104.4,357,103.6"/>
	<path class="st1" d="M371,102.9c-2.2,0-3.6,1.4-3.6,3.6v13.1h-2v-18.3h2v1.9c0.2-0.4,0.6-0.9,0.9-1.2c0.8-0.8,1.9-1.1,3.1-1.1v1.9
		H371z"/>
	<polygon class="st1" points="396,119.6 393.8,119.6 391,104.6 388.4,119.6 386.2,119.6 382.7,101.2 385.1,101.2 387.4,116.4 
		390,101.2 392,101.2 394.8,116.4 397.2,101.2 399.5,101.2 	"/>
	<path class="st1" d="M411.4,118.4c-0.8,1-1.9,1.4-3.4,1.4c-1.5,0-2.6-0.5-3.4-1.4c-1.1-1.3-1.4-3.7-1.4-8c0-4.3,0.3-6.7,1.4-8
		c0.8-1,1.9-1.5,3.4-1.5c1.5,0,2.6,0.5,3.4,1.5c1.1,1.3,1.4,3.7,1.4,8C412.8,114.7,412.6,117.1,411.4,118.4 M409.9,103.6
		c-0.4-0.5-1-0.8-1.8-0.8s-1.4,0.4-1.8,0.8c-0.8,1-0.9,2.9-0.9,6.8c0,3.9,0.1,5.8,0.9,6.8c0.4,0.5,1,0.8,1.8,0.8s1.4-0.4,1.8-0.8
		c0.8-1,0.9-2.9,0.9-6.8C410.8,106.5,410.7,104.6,409.9,103.6"/>
	<path class="st1" d="M424,102.9c-2.2,0-3.6,1.4-3.6,3.6v13.1h-2v-18.3h2v1.9c0.2-0.4,0.6-0.9,0.9-1.2c0.8-0.8,1.9-1.1,3.1-1.1v1.9
		H424z"/>
	<path class="st1" d="M430.2,118.4c-0.9-0.8-1.4-1.9-1.4-3.7V93.9h2v20.7c0,2,1,3.1,3,3.1v1.8C432.5,119.6,431.2,119.3,430.2,118.4"
		/>
	<path class="st1" d="M445.2,119.6v-1.5c-0.2,0.4-0.7,0.9-1,1.1c-0.6,0.4-1.3,0.6-2.1,0.6c-1.1,0-2.1-0.4-2.8-1.3
		c-1.1-1.3-1.4-3.6-1.4-8.1c0-4.6,0.3-6.9,1.4-8.2c0.7-0.8,1.6-1.3,2.8-1.3c0.8,0,1.5,0.2,2.1,0.6c0.4,0.2,0.8,0.7,1,1.1v-8.7h2
		v25.6H445.2z M445.1,106c0-1.2-0.3-2-0.8-2.5c-0.5-0.4-1.1-0.7-1.8-0.7c-0.7,0-1.4,0.4-1.8,0.8c-0.8,1-0.9,2.9-0.9,6.8
		c0,3.9,0.1,5.8,0.9,6.8c0.4,0.5,1,0.8,1.8,0.8c0.7,0,1.3-0.2,1.8-0.6c0.5-0.5,0.8-1.4,0.8-2.6V106z"/>
</g>
</svg>
